<svg width="25" height="22" viewBox="0 0 25 22" fill="none" xmlns="http://www.w3.org/2000/svg">
<path d="M7.43066 1.56287L9.77734 3.20837L10.1895 3.49744L9.87891 3.89294C9.50428 4.36867 9.03796 5.12297 8.48047 6.17322L8.47754 6.18005C7.9326 7.16865 7.46231 8.27591 7.06934 9.50427L7.06836 9.50818C6.74998 10.4723 6.57962 11.4037 6.55078 12.3031C6.594 12.2986 6.63605 12.2969 6.67676 12.2953C6.89631 12.2544 7.11679 12.2338 7.33789 12.2338C8.51996 12.2338 9.58341 12.5779 10.5107 13.2679H10.5098C11.5128 13.9739 11.9667 15.1248 11.9668 16.5892C11.9668 17.8845 11.5197 19.0341 10.6426 20.0199L10.6436 20.0209C9.77882 20.9988 8.60025 21.4709 7.16699 21.473L7.16797 21.474C5.21197 21.5155 3.66784 20.9085 2.63086 19.5873L2.62598 19.5814C1.63086 18.2712 1.14453 16.6761 1.14453 14.8256C1.14458 13.5209 1.35347 12.1446 1.76465 10.6986C2.17657 9.25007 2.7931 7.76828 3.60938 6.2533L3.61133 6.24939L3.94238 5.66541C4.73796 4.30762 5.6886 2.96805 6.79199 1.64685L7.07227 1.31091L7.43066 1.56287ZM19.4668 1.56287L21.8135 3.20837L22.2256 3.49744L21.9141 3.89294C21.5394 4.36867 21.0741 5.12297 20.5166 6.17322L20.5127 6.18005C19.9678 7.16857 19.4984 8.27604 19.1055 9.50427L19.1035 9.50818C18.7851 10.4723 18.6158 11.4037 18.5869 12.3031C18.6301 12.2986 18.6722 12.2968 18.7129 12.2953C18.9323 12.2544 19.1531 12.2338 19.374 12.2338C20.556 12.2339 21.6196 12.5778 22.5469 13.2679L22.5459 13.2689C23.5484 13.9749 24.0019 15.1252 24.002 16.5892C24.002 17.8846 23.555 19.0341 22.6777 20.0199L22.6787 20.0209C21.8139 20.9988 20.6355 21.471 19.2021 21.473L19.2031 21.474C17.2471 21.5155 15.703 20.9085 14.666 19.5873L14.6611 19.5814C13.6661 18.2713 13.1807 16.676 13.1807 14.8256C13.1807 13.5209 13.3896 12.1446 13.8008 10.6986C14.2127 9.25013 14.8283 7.76822 15.6445 6.2533L15.6465 6.24939L15.9785 5.66541C16.7741 4.3077 17.7238 2.96797 18.8271 1.64685L19.1084 1.31091L19.4668 1.56287Z" fill="#131313" stroke="#131313" stroke-width="0.952381"/>
</svg>
